<svg width="99" height="160" viewBox="0 0 99 160" fill="none" xmlns="http://www.w3.org/2000/svg">
<g clip-path="url(#clip0)">
<path d="M7.35425 30.9088C3.11867 34.1349 0.420051 40.0377 0.223462 46.5497C-0.446724 68.5716 -1.08117 115.112 22.0001 138.735L41.784 156.336C46.2965 160.351 52.1316 160.554 56.8141 156.886C62.9351 152.094 71.1292 144.877 75.8652 137.385C76.0797 137.038 76.3031 136.716 76.5354 136.393C79.5379 132.319 102.145 99.7223 98.6337 45.9763C98.2316 39.8227 95.6135 34.3021 91.6101 31.2074L56.5818 4.16719C52.221 0.797615 46.8506 0.773715 42.481 4.11939L7.35425 30.9088Z" fill="#F7BC28"/>
<path d="M18.2379 43.2267C15.1015 45.6164 13.0998 50.0016 12.9479 54.829C12.4475 71.163 11.9829 105.671 29.095 123.2L43.7676 136.26C47.1185 139.236 51.4434 139.391 54.9105 136.667C59.45 133.118 65.5263 127.765 69.0381 122.209C69.199 121.958 69.3598 121.707 69.5385 121.48C71.7635 118.457 88.4646 94.0452 85.9269 54.4228C85.766 51.8537 80.9943 44.1707 79.3679 42.426L54.7498 23.3915C51.515 20.8942 47.5385 20.8822 44.2949 23.3557L18.2379 43.2267Z" fill="#E48929"/>
<path d="M49.4957 21.5037V80.5669H84.8905C84.8905 80.5669 87.4105 64.0894 85.936 54.4227C85.936 54.4227 85.5249 47.7792 79.3771 42.4261L54.75 23.3917C54.75 23.3917 52.2479 21.3842 49.4957 21.5037Z" fill="#FBFAF7"/>
<path d="M49.4956 80.5668L49.4867 138.591C49.4867 138.591 46.6451 138.806 43.0796 135.627L31.2843 125.136C31.2843 125.136 21.2852 117.166 18.0326 103.975C18.0326 103.975 13.931 91.8467 13.3681 79.4795L49.4956 80.5668Z" fill="#FBFAF7"/>
</g>
<defs>
<clipPath id="clip0">
<rect width="99" height="160" fill="white"/>
</clipPath>
</defs>
</svg>
