<svg width="78" height="145" viewBox="0 0 78 145" fill="none" xmlns="http://www.w3.org/2000/svg">
<g clip-path="url(#clip0)">
<path d="M67.0877 145H10.9124C4.88417 145 0 137.464 0 128.163V25.6417C0 16.3402 4.88417 8.80396 10.9124 8.80396H67.0877C73.1158 8.80396 78 16.3402 78 25.6417V128.163C78 137.464 73.1158 145 67.0877 145Z" fill="#F7BC28"/>
<path d="M65.6209 53.2296H12.3791C9.84162 53.2296 7.77356 50.0385 7.77356 46.1233V26.3433C7.77356 22.4281 9.84162 19.2371 12.3791 19.2371H65.6209C68.1583 19.2371 70.2263 22.4281 70.2263 26.3433V46.1233C70.2263 50.0385 68.1583 53.2296 65.6209 53.2296Z" fill="#E48929"/>
<path d="M65.6209 92.45H12.3792C10.2377 92.45 8.50702 89.7794 8.50702 86.4752V66.6954C8.50702 63.3912 10.2377 60.7207 12.3792 60.7207H65.6209C67.7624 60.7207 69.4932 63.3912 69.4932 66.6954V86.4752C69.4932 89.7794 67.7624 92.45 65.6209 92.45Z" fill="#E48929"/>
<path d="M65.6209 133.933H12.3791C9.84162 133.933 7.77356 130.742 7.77356 126.827V107.047C7.77356 103.132 9.84162 99.9409 12.3791 99.9409H65.6209C68.1583 99.9409 70.2263 103.132 70.2263 107.047V126.827C70.2263 130.742 68.1583 133.933 65.6209 133.933Z" fill="#E48929"/>
<path d="M39.4108 82.6051C41.5656 82.6051 43.3123 79.9099 43.3123 76.5852C43.3123 73.2604 41.5656 70.5652 39.4108 70.5652C37.2561 70.5652 35.5094 73.2604 35.5094 76.5852C35.5094 79.9099 37.2561 82.6051 39.4108 82.6051Z" fill="#F7BC28"/>
<path d="M39.4108 122.957C41.5656 122.957 43.3123 120.262 43.3123 116.937C43.3123 113.612 41.5656 110.917 39.4108 110.917C37.2561 110.917 35.5094 113.612 35.5094 116.937C35.5094 120.262 37.2561 122.957 39.4108 122.957Z" fill="#F7BC28"/>
<path d="M12.1296 10.6369C14.0656 27.1579 15.2977 44.3127 17.3511 60.7205H56.0578C52.8897 31.9784 51.2469 21.6133 49.4281 3.16853C49.2228 1.17695 48.0348 -0.2262 46.7441 0.0227474L14.1976 6.26904C12.8189 6.54061 11.8802 8.53219 12.1296 10.6369Z" fill="#FBFAF7"/>
<path d="M21.9127 24.691C29.2316 25.0758 36.5359 24.5779 43.8108 23.1973C44.9695 22.9709 44.9842 20.142 43.8108 20.3684C36.5506 21.7489 29.2316 22.2468 21.9127 21.862C20.7394 21.8167 20.7394 24.6457 21.9127 24.691Z" fill="#194429"/>
<path d="M23.3796 36.0069C30.6986 36.3915 38.0028 35.8936 45.2777 34.5132C46.4364 34.2868 46.451 31.4579 45.2777 31.6843C38.0174 33.0647 30.6986 33.5626 23.3796 33.178C22.2062 33.1326 22.2062 35.9616 23.3796 36.0069Z" fill="#194429"/>
<path d="M24.8459 47.3228C32.1649 47.7076 39.4691 47.2097 46.744 45.8291C47.9027 45.6029 47.9174 42.774 46.744 43.0002C39.4837 44.3807 32.1649 44.8786 24.8459 44.4938C23.6726 44.4487 23.6726 47.2777 24.8459 47.3228Z" fill="#194429"/>
</g>
<defs>
<clipPath id="clip0">
<rect width="78" height="145" fill="white"/>
</clipPath>
</defs>
</svg>
