<svg width="129" height="150" viewBox="0 0 129 150" fill="none" xmlns="http://www.w3.org/2000/svg">
<g clip-path="url(#clip0)">
<path d="M35.1961 21.4942C22.7171 48.1236 12.139 76.2707 3.66576 105.459C1.7104 112.182 -0.163501 119.171 0.0130252 126.353C0.189551 133.535 2.83745 141.071 7.82092 144.177C10.6453 145.941 13.8772 146.135 17.0003 146.241C46.0457 147.159 75.1861 142.341 103.118 131.982C114.402 127.8 127.506 119.453 128.103 104.224C128.511 93.7589 122.59 84.9883 118.937 75.6354C112.99 60.406 112.745 41.7707 105.06 27.9177C98.1074 15.3707 89.091 2.27662 77.2501 0.935452C70.257 0.141335 62.5984 -0.91749 54.872 1.42957C46.3852 3.98839 39.2562 11.4707 35.1961 21.4942Z" fill="#F7BC28"/>
<path d="M44.1318 24.3707C39.0126 43.5002 36.9079 64.2884 38.0213 84.7237C38.5645 94.5707 39.936 104.7 43.9961 112.694C49.1968 122.947 58.5255 128.259 67.3111 126.847C76.0967 125.435 84.1354 117.724 88.9967 107.118C96.0985 91.6413 96.4108 71.8237 95.4603 53.3296C94.6048 36.8825 91.7804 18.0531 81.569 10.5002C73.5439 4.5708 63.8485 7.92374 55.1444 11.4002L44.1318 24.3707Z" fill="#FFC9A0"/>
<path d="M31.7886 64.606C43.8738 64.6766 57.6972 57.4943 60.7389 53.7354C69.9047 42.3531 70.828 18.7942 70.5565 3.14136L41.837 16.5178L31.9923 40.5531L31.7886 64.606Z" fill="#F7BC28"/>
<path d="M64.0518 3.12378C64.0518 3.12378 76.2864 48.3885 101.991 54.8826L97.9448 35.4002L87.7606 10.0238L64.0518 3.12378Z" fill="#F7BC28"/>
<path d="M78.9207 52.1118C78.2417 51.9706 77.5764 52.4294 77.2776 53.2412C77.2097 53.4353 77.1283 53.6294 77.0739 53.8412C76.8838 54.5118 76.8974 55.4118 77.3863 55.7471C77.5764 55.8882 77.8072 55.8882 78.0245 55.8882C80.3057 55.9412 82.5734 56.3471 84.8004 57.0353C85.9274 57.3882 87.0409 57.8118 88.1408 58.3235C88.4124 58.4471 89.4308 59.1882 89.6752 59.0647C90.1369 58.8529 89.9061 57.7765 89.716 57.3882C89.458 56.8765 89.037 56.5412 88.6432 56.2235L88.5346 56.1353C86.2941 54.3529 83.7955 53.1353 81.202 52.6059L78.9207 52.1118Z" fill="#F7BC28"/>
<path d="M57.7922 8.75317C48.8709 8.77082 39.7051 27.3709 36.5547 36.7061C33.0378 47.1356 26.8186 58.3061 22.5413 68.2238C18.359 77.9297 14.2038 87.7238 11.0263 98.0826C9.45114 103.2 8.13399 108.459 7.21062 113.841C6.3823 118.606 6.54525 119.753 6.05641 124.677C5.49967 130.271 5.6762 136.818 9.9943 137.859C14.231 138.883 22.0253 138.636 26.2619 139.359C27.0495 139.5 27.4025 137.912 26.6014 137.771C20.4637 136.694 10.3066 140.118 7.87599 129.883C6.76251 125.188 7.49577 120.018 8.26977 115.341C9.09809 110.294 17.4084 91.0591 18.8071 86.2414C24.551 66.5297 28.8419 63.2826 35.7672 44.2944C39.6372 33.6885 43.8195 21.4944 51.1385 14.1179C52.2792 12.9532 53.542 11.9826 54.9271 11.4355C56.1084 10.9767 57.9687 10.3767 58.9872 10.0238C60.2772 9.54729 59.9784 8.75317 57.7922 8.75317Z" fill="white"/>
<path d="M44.8785 135.547C44.6748 135.547 44.4847 135.53 44.281 135.512C40.3431 135.018 34.056 133.659 30.5119 131.771C27.3209 130.077 23.8175 127.659 22.0115 123.689C18.9019 116.894 19.4179 106.218 23.5867 100.324C24.1298 99.5474 24.3335 97.6592 23.7768 98.4356C20.1784 103.536 18.2637 109.13 18.9019 115.836C19.3365 120.336 19.1871 124.747 21.0474 127.059C23.3287 129.9 27.9863 132.283 30.9057 133.747C34.4498 135.512 39.2025 136.147 42.9638 136.589C43.765 136.694 47.6078 136.589 47.1054 135.565H44.8785V135.547Z" fill="white"/>
<path d="M31.585 88.8709C29.7247 95.4532 27.6335 106.289 28.8149 111.671C29.5074 114.794 34.0835 119.524 37.7363 123.477C38.3609 124.147 39.7188 124.641 39.0942 123.953C35.6179 120.194 31.7615 116.012 30.553 110.083C29.1815 103.394 30.6481 94.6062 32.4405 88.3062C32.7121 87.3179 31.8702 87.8826 31.585 88.8709Z" fill="white"/>
<path d="M35.2922 57.7413C39.814 56.8766 44.0778 54.7413 48.233 52.3413C52.0758 50.1355 58.2406 46.4119 61.3231 42.6002C64.3783 38.7884 65.0437 32.259 66.4152 27.1237C67.9089 21.5825 67.6644 18.4943 67.6916 12.6354C67.6916 11.5766 66.7954 8.73541 66.7954 9.79423C66.7954 26.2943 64.0524 35.7531 57.8333 43.1472C54.8866 46.6413 51.1932 48.8649 47.5812 50.9296C43.5211 53.259 39.3523 55.3237 34.9392 56.1531C34.1516 56.3119 34.4911 57.9002 35.2922 57.7413Z" fill="white"/>
<path d="M43.7246 39.9883C44.7973 34.8001 49.7536 29.5765 52.6052 25.6236C55.7148 21.3354 56.3937 19.8883 60.1687 16.6766C60.8476 16.0942 61.4994 13.4825 60.8205 14.0648C56.774 17.506 51.5596 22.6765 48.3143 27.3354C45.422 31.4824 43.5888 35.8765 43.3308 38.5765C43.2357 39.6177 42.8148 42.3707 43.3172 42.6177L43.7246 39.9883Z" fill="white"/>
<path d="M54.0718 34.9414C58.0368 28.412 62.5315 20.3297 61.8525 15.0002C61.7167 13.9767 60.7526 13.5179 60.6304 14.5591C59.7478 22.765 55.6062 30.9532 51.7769 37.2885C51.2745 38.1003 52.3201 37.8355 52.8225 37.0061L54.0718 34.9414Z" fill="white"/>
<path d="M104.857 55.0945C90.5987 50.1533 79.1788 34.4121 76.205 15.6356C76.0014 15.9885 75.7977 16.3238 75.594 16.6767C84.6512 15.6003 92.6084 23.0298 97.7956 32.1003C103.757 42.5298 106.201 55.465 109.446 67.5356C111.13 73.7827 113.208 79.6768 115.475 85.6062C117.702 91.4298 119.997 97.8003 119.4 104.471C118.408 115.624 109.799 121.977 102.453 125.383C91.1555 130.624 78.8937 132.953 66.9306 133.094C66.1159 133.112 64.242 135.565 65.0432 135.565C76.4902 135.424 86.43 133.677 97.3475 129.177C104.843 126.089 117.634 118.394 120.595 108.194C122.346 102.177 122.536 96.8827 120.703 91.1121C118.639 84.5827 113.914 78.3886 111.958 71.7886C108.183 59.0121 103.797 40.0239 101.584 35.418C94.944 21.5121 85.8597 13.8179 75.6076 15.0356C75.1866 15.0885 74.915 15.512 74.9965 16.0767C79.301 42.9709 89.8655 51.6003 104.531 56.665C105.318 56.9474 105.644 55.3768 104.857 55.0945Z" fill="white"/>
<path d="M64.8395 127.747C73.7473 128.718 88.1138 127.641 96.6278 123.547C103.526 120.23 105.06 115.324 108.102 106.359C109.799 101.347 110.981 101.824 108.021 90.5471C107.763 89.5413 106.445 89.206 106.866 90.106C110.926 98.9295 105.658 110.912 100.389 116.559C94.4552 122.93 86.8102 125.753 79.2467 126.477C74.4534 126.935 69.6328 126.635 64.853 126.106C64.0247 126.018 64.0247 127.659 64.8395 127.747Z" fill="white"/>
<path d="M113.086 109.659C116.738 103.465 115.394 99.2474 114.077 91.8356C112.529 83.1533 108.55 75.6004 104.898 68.2239C104.463 67.3415 103.363 68.1533 103.811 69.0533C107.287 76.0592 111.022 83.1356 112.678 91.2886C114.158 98.5768 114.539 104.542 111.348 112.042C110.954 112.959 110.737 114.547 111.225 113.718L113.086 109.659Z" fill="white"/>
<path d="M87.5848 114.794C93.2065 112.677 98.2442 103.43 100.526 96.5473C103.309 88.0944 100.077 83.1002 98.5158 74.3297C98.3257 73.3061 97.1172 73.7297 97.2937 74.7708C98.7738 83.0473 99.1948 92.0297 96.6827 100.041C94.6051 106.659 90.1376 111.106 85.127 114.336C84.6517 114.636 83.6876 115.959 83.6876 115.959L87.5848 114.794Z" fill="white"/>
<path d="M85.1945 29.3649C87.4214 30.6532 89.9471 33.0355 91.8617 35.612C93.8443 38.2943 98.3661 45.3355 100.05 48.3355C103.309 54.1943 103.268 56.4179 105.237 63.1767C105.522 64.1473 106.744 63.7238 106.459 62.7355C104.354 55.4826 101.516 48.6355 97.9587 42.4238C96.2342 39.4061 96.3428 38.0826 94.306 35.4002C92.3506 32.8238 89.7706 30.1061 87.0412 29.0649C86.2536 28.7649 84.4069 29.0649 85.1945 29.3649Z" fill="white"/>
<path d="M40.2619 63.6355C34.871 64.7826 32.9292 64.6943 27.9865 67.9414C24.4424 70.2708 20.7082 73.659 20.1379 78.7767C19.4046 85.359 24.4696 90.8296 29.4938 92.1002C34.518 93.3708 39.7051 91.9414 44.8108 92.4708" fill="#FFC9A0"/>
<path d="M94.0343 53.1355C98.5968 52.5355 103.241 53.3296 107.532 55.4296C111.823 57.5296 115.462 63.1767 114.688 69.0355C113.846 75.3531 108.686 78.8649 104.042 81.0002C99.6831 82.9943 95.2156 84.6002 90.6938 85.8002" fill="#FFC9A0"/>
<path d="M55.4973 124.218L59.2044 149.365H70.5564L74.6572 116.806L55.4973 124.218Z" fill="#FFC9A0"/>
<path d="M44.3895 102.247C44.2265 102.441 43.9821 102.441 43.8192 102.247C42.5292 100.765 41.0219 99.6176 39.6776 98.2059C38.2382 96.6882 36.9346 94.7471 36.6087 92.3823C35.9977 87.9353 39.501 84.9176 42.339 87.7765C43.1402 88.5706 43.7648 89.6294 44.3487 90.7059C44.4031 90.8118 44.5524 90.7588 44.5388 90.6176C44.4302 89.3823 44.7833 88.0765 45.4079 87.1235C46.4806 85.4471 48.7619 84.0176 50.4864 84.4412C52.9171 85.0235 52.8627 88.6765 52.1974 91.0765C51.3962 93.9706 49.1014 96.5294 47.4176 98.5588L44.3895 102.247Z" fill="#F1673C"/>
<path d="M88.9961 99.5472C88.8196 99.7237 88.5752 99.6708 88.4394 99.459C87.2852 97.8002 85.9001 96.4414 84.6916 94.8355C83.388 93.1237 82.2746 90.9884 82.1523 88.5884C81.9351 84.0708 85.6829 81.6178 88.2629 84.8649C88.9826 85.7825 89.5121 86.9119 90.001 88.0766C90.0553 88.2002 90.1911 88.1472 90.1911 88.0237C90.1911 86.7708 90.6664 85.5355 91.3725 84.6708C92.5946 83.1708 94.9709 82.0943 96.6547 82.7649C99.0174 83.7178 98.6372 87.3178 97.7681 89.6119C96.709 92.3649 94.2105 94.5531 92.3637 96.3355L88.9961 99.5472Z" fill="#F1673C"/>
<path d="M73.109 108.124C77.4407 105.759 80.8354 101.206 82.4785 95.4886C82.6414 94.9062 82.2884 94.2357 81.8674 94.0768C81.3786 93.9004 80.9441 94.2886 80.7811 94.871C79.3825 99.7592 76.3544 103.889 72.6473 105.9C72.2128 106.147 71.8869 106.659 72.0363 107.312C72.1313 107.859 72.6609 108.371 73.109 108.124Z" fill="#010101"/>
<path d="M73.8156 66.9886C74.576 71.1886 77.6449 74.7533 81.1075 73.7298C84.3121 72.7769 85.7108 68.3475 86.6341 64.7122C86.1996 64.9416 85.7651 65.171 85.3441 65.4004C87.4353 66.7945 89.5264 68.171 91.6176 69.5651C92.6225 70.2357 93.5187 68.2592 92.5138 67.5886C90.4227 66.1945 88.3315 64.8181 86.2403 63.4239C85.7108 63.071 85.1269 63.371 84.9503 64.1122C84.2714 66.7769 83.348 70.3239 81.0939 71.3651C78.4324 72.6004 76.1104 69.5298 75.5401 66.3886C75.255 64.9416 73.544 65.5592 73.8156 66.9886Z" fill="#010101"/>
<path d="M84.0403 69.7059C84.1218 69.7765 84.1896 69.8471 84.2575 69.9177C84.3798 70.0412 84.2847 69.953 84.2168 69.8824C84.2711 69.9353 84.3119 69.9883 84.3662 70.0412C84.5427 70.2354 84.7328 70.4118 84.9093 70.6059C85.3303 71.0471 85.7376 71.5059 86.1586 71.9471C86.9462 72.7942 87.7202 73.6589 88.5485 74.4354C88.9287 74.7883 89.5533 74.5412 89.757 74.0295C90.0014 73.4295 89.8385 72.8295 89.4447 72.4589C89.3632 72.3883 89.2953 72.3177 89.2274 72.2471C89.1052 72.1236 89.2003 72.2118 89.2682 72.2824C89.2138 72.2295 89.1731 72.1765 89.1188 72.1236C88.9423 71.9295 88.7522 71.753 88.5756 71.5589C88.1547 71.1177 87.7473 70.6589 87.3264 70.2177C86.5388 69.3706 85.7648 68.5059 84.9365 67.7295C84.5563 67.3765 83.9316 67.6236 83.728 68.1354C83.4835 68.7177 83.6465 69.3177 84.0403 69.7059Z" fill="#010101"/>
<path d="M58.3487 69.9357C57.7784 73.0769 55.4564 76.1474 52.795 74.9121C50.5409 73.871 49.6175 70.3239 48.9385 67.6592C48.7484 66.9357 48.1645 66.618 47.6485 66.971C45.5574 68.3651 43.4662 69.7416 41.3751 71.1357C40.3566 71.8063 41.2529 73.7827 42.2713 73.1122C44.3624 71.718 46.4536 70.3416 48.5447 68.9474C48.1102 68.718 47.6757 68.4886 47.2547 68.2592C48.1781 71.8945 49.5767 76.3063 52.7814 77.2769C56.244 78.318 59.3129 74.7357 60.0733 70.5357C60.3177 69.1239 58.6067 68.5063 58.3487 69.9357Z" fill="#010101"/>
<path d="M48.9251 71.2766C48.0968 72.0531 47.3228 72.9178 46.5352 73.7649C46.1143 74.2061 45.7069 74.6649 45.286 75.1061C45.1094 75.3002 44.9329 75.4766 44.7428 75.6708C44.7021 75.7237 44.6613 75.759 44.607 75.8119C44.5527 75.8649 44.7971 75.6355 44.6206 75.7943C44.5527 75.8649 44.4712 75.9355 44.4033 76.0061C44.0367 76.359 43.8059 77.0119 44.091 77.5766C44.3354 78.0531 44.9058 78.3708 45.2995 77.9825C46.1279 77.2061 46.9019 76.3414 47.6894 75.4943C48.1104 75.0531 48.5178 74.5943 48.9387 74.1531C49.1152 73.959 49.2918 73.7825 49.4819 73.5884C49.5226 73.5355 49.5633 73.5002 49.6176 73.4472C49.672 73.3943 49.4275 73.6237 49.6041 73.4649C49.672 73.3943 49.7534 73.3237 49.8213 73.2531C50.188 72.9002 50.4188 72.2472 50.1337 71.6825C49.9028 71.2061 49.3325 70.9061 48.9251 71.2766Z" fill="#010101"/>
<path d="M99.9141 61.3767C101.516 61.059 103.227 61.4473 104.789 61.959C106.337 62.4708 107.926 63.1237 108.836 64.9767C109.311 65.9473 109.487 67.0237 109.175 68.1355C108.89 69.159 108.36 70.1296 107.79 70.9237C106.785 72.3002 105.482 73.2002 104.164 73.9237C102.589 74.7885 100.946 75.4414 99.3846 76.3414C98.6377 76.7649 99.2895 78.1767 100.023 77.7533C103.119 75.9708 106.785 75.1237 109.053 71.559C110.316 69.5826 111.103 67.1649 110.18 64.6943C109.324 62.4355 107.668 61.3237 105.889 60.6355C103.879 59.859 101.693 59.3826 99.6018 59.7885C98.7735 59.9473 99.113 61.5355 99.9141 61.3767Z" fill="#010101"/>
<path d="M101.028 70.8C101.517 70.6765 102.005 70.3765 102.44 70.0942C103.051 69.7236 103.635 69.2647 104.164 68.7177C104.64 68.2236 105.088 67.553 105.129 66.7412C105.169 65.6647 104.409 65.0295 103.73 64.6589C102.766 64.1471 101.693 64.0589 100.661 63.9353C100.335 63.9 100.023 64.3412 100.036 64.7471C100.05 65.2236 100.308 65.5236 100.661 65.5589C100.838 65.5765 101.014 65.5942 101.191 65.6118C101.299 65.6295 101.394 65.6295 101.503 65.6471C101.544 65.6471 101.584 65.6647 101.612 65.6647C101.639 65.6647 101.829 65.7 101.761 65.6824C101.666 65.6648 101.856 65.7 101.856 65.7C101.91 65.7177 101.978 65.7177 102.033 65.7353C102.128 65.753 102.236 65.7706 102.331 65.8059C102.549 65.8589 102.752 65.9295 102.969 66C103.065 66.0353 103.146 66.0706 103.241 66.1236C103.282 66.1412 103.309 66.1589 103.35 66.1765C103.214 66.1059 103.377 66.1942 103.404 66.2118C103.485 66.2647 103.567 66.3177 103.635 66.3706C103.676 66.4059 103.703 66.4236 103.743 66.4589C103.893 66.5824 103.689 66.3883 103.757 66.4765C103.798 66.5295 103.839 66.5824 103.866 66.6177C103.947 66.7059 103.784 66.4412 103.839 66.5648C103.852 66.5824 103.852 66.6 103.866 66.6177C103.947 66.7765 103.825 66.4236 103.866 66.6C103.92 66.8295 103.852 66.4236 103.866 66.6C103.866 66.6177 103.852 66.6883 103.866 66.6883C103.852 66.6706 103.906 66.4765 103.879 66.5648C103.866 66.6177 103.852 66.6706 103.839 66.7236C103.811 66.8648 103.92 66.5295 103.866 66.653C103.852 66.6706 103.839 66.7059 103.839 66.7412C103.811 66.8118 103.784 66.8647 103.757 66.9177C103.689 67.0412 103.866 66.7589 103.784 66.8824C103.771 66.9 103.743 66.9353 103.73 66.9706C103.689 67.0236 103.648 67.0765 103.608 67.1295C103.513 67.253 103.404 67.3765 103.295 67.5C103.268 67.5353 103.214 67.6059 103.336 67.4647C103.309 67.5 103.268 67.5353 103.241 67.553C103.187 67.6059 103.132 67.6589 103.078 67.7118C102.956 67.8177 102.82 67.9236 102.698 68.0295C102.453 68.2236 102.195 68.4 101.937 68.5589C101.802 68.6471 101.666 68.7353 101.517 68.8059C101.503 68.8236 101.476 68.8412 101.449 68.8412C101.639 68.7706 101.489 68.8236 101.435 68.8412C101.381 68.8765 101.313 68.9118 101.259 68.9295C101.082 69.0177 100.892 69.1059 100.715 69.1589C100.389 69.2471 100.172 69.7765 100.281 70.1647C100.362 70.6942 100.688 70.8883 101.028 70.8Z" fill="#010101"/>
<path d="M35.1289 86.0474C32.9291 86.4004 30.7158 86.1709 28.5839 85.3239C27.063 84.7239 24.1028 83.5239 24.5102 80.8062C24.7003 79.5357 25.4064 78.4592 26.0853 77.5768C26.7779 76.6768 27.5247 75.8474 28.3395 75.1415C30.0097 73.6592 31.87 72.6357 33.8389 72.0709C34.6265 71.8415 34.3006 70.271 33.4995 70.4827C30.064 71.471 26.6013 73.9239 24.4016 77.5415C23.3424 79.2886 22.6635 81.6886 23.7905 83.6651C24.8225 85.4827 26.8322 86.3651 28.4345 86.9827C30.5936 87.8121 32.8748 88.0415 35.1018 87.6886C35.9301 87.5651 35.9437 85.9239 35.1289 86.0474Z" fill="#010101"/>
<path d="M32.522 75.5119C31.6665 75.6355 30.8518 75.9355 30.0778 76.4119C29.3717 76.8531 28.6384 77.4707 28.1496 78.2825C27.5928 79.1825 27.4978 80.2943 27.8916 81.3355C28.231 82.2531 28.8964 82.9237 29.6433 83.2237C30.6209 83.6296 31.6665 83.4178 32.6578 83.2237C32.9973 83.1531 33.1874 82.606 33.0923 82.2178C32.9973 81.7413 32.6578 81.5825 32.3183 81.6531C31.5036 81.8119 30.6074 81.9884 29.8198 81.5825C29.8877 81.6178 29.684 81.4943 29.6704 81.4766C29.5889 81.4237 29.521 81.3531 29.4396 81.2825C29.4803 81.3178 29.4667 81.3002 29.4124 81.2472C29.3853 81.2119 29.3445 81.159 29.3174 81.1237C29.3038 81.106 29.1544 80.8943 29.1952 80.9649C29.1408 80.8766 29.1001 80.7708 29.0458 80.6825C29.0186 80.6296 29.005 80.5766 28.9915 80.5237C29.005 80.5943 29.005 80.5766 28.9779 80.4884C28.9507 80.3825 28.9236 80.2766 28.91 80.1707C28.9236 80.3119 28.91 80.0119 28.91 79.9766C28.91 79.8707 28.91 79.8707 28.91 79.9413C28.9236 79.8884 28.9236 79.8355 28.9372 79.7825C28.9507 79.6943 28.9643 79.659 29.0186 79.5531C29.1001 79.359 29.2087 79.2178 29.3445 79.0413C29.6297 78.6884 29.9556 78.406 30.295 78.159C30.974 77.6472 31.7752 77.2943 32.5356 77.1884C32.875 77.1355 33.1602 76.8531 33.1602 76.3766C33.1466 75.9355 32.8615 75.4766 32.522 75.5119Z" fill="#010101"/>
<path d="M67.3376 78.3003C68.4375 81.9709 69.6868 85.6415 70.583 89.3121C70.8003 90.2121 70.2707 91.1121 69.551 91.1297C68.2746 91.1474 66.7673 91.165 65.5181 91.165C64.8799 91.165 64.3774 90.4591 64.4318 89.6121L65.2465 78.6533C65.3551 77.1709 66.9167 76.9062 67.3376 78.3003Z" fill="#E48929"/>
<path d="M73.6656 124.659C73.6656 124.659 64.7714 129.3 55.4834 124.218L56.1895 128.982L72.1583 136.588L73.6656 124.659Z" fill="#EFB086"/>
<path d="M67.6364 12.0706C72.1446 11.9117 76.2047 9.77645 80.6721 10.7647C83.7681 11.4529 87.4073 13.5353 89.933 15.7941C95.1609 20.4706 99.1259 25.3941 103.213 31.7647C103.77 32.647 109.039 42.9176 104.639 31.6941C101.638 24.0706 94.6042 18.5647 89.1862 13.747C86.6062 11.4529 84.1484 9.74116 81.0252 9.05292C76.4355 8.02939 66.6858 7.19998 66.7266 8.32939C66.7945 9.77645 66.7945 11.0823 66.7945 11.0823L67.6364 12.0706Z" fill="white"/>
</g>
<defs>
<clipPath id="clip0">
<rect width="129" height="150" fill="white"/>
</clipPath>
</defs>
</svg>
